<?xml version="1.0" standalone="no"?>
<!DOCTYPE svg PUBLIC "-//W3C//DTD SVG 20010904//EN"
 "http://www.w3.org/TR/2001/REC-SVG-20010904/DTD/svg10.dtd">
<svg version="1.0" xmlns="http://www.w3.org/2000/svg"
 width="140.000000pt" height="140.000000pt" viewBox="0 0 140.000000 140.000000"
 preserveAspectRatio="xMidYMid meet">
<metadata>
Created by potrace 1.11, written by Peter Selinger 2001-2013
</metadata>
<g transform="translate(0.000000,140.000000) scale(0.100000,-0.100000)"
fill="#000000" stroke="none">
<path d="M490 1384 c-45 -19 -78 -58 -86 -101 -5 -26 -10 -33 -23 -28 -54 23
-127 8 -163 -32 -21 -23 -45 -90 -42 -120 1 -13 2 -30 3 -39 0 -9 17 -31 36
-49 34 -32 34 -33 11 -39 -50 -12 -90 -71 -81 -118 13 -70 53 -93 190 -112 10
-2 22 -13 26 -27 8 -32 37 -88 60 -118 23 -29 24 -38 4 -38 -33 0 -149 -70
-205 -124 -62 -61 -117 -135 -107 -145 8 -8 150 -7 178 1 63 18 61 20 34 -37
-14 -29 -25 -70 -25 -92 l0 -39 36 6 c50 8 121 45 165 85 l38 33 20 -66 c12
-37 22 -87 23 -111 0 -24 5 -44 10 -44 13 0 112 102 142 147 16 24 33 40 38
37 24 -15 75 -160 69 -193 -2 -12 0 -13 13 -2 23 19 53 104 55 155 1 18 3 18
27 -5 32 -30 49 -63 58 -111 4 -21 10 -38 14 -38 11 0 61 86 69 118 20 81 -3
222 -52 309 -18 33 -21 45 -11 58 9 13 16 5 44 -47 41 -77 52 -92 76 -101 24
-9 46 9 46 39 0 39 -30 116 -65 165 l-32 45 28 28 c49 50 87 162 83 248 -1 14
10 19 47 24 27 4 49 9 49 11 0 12 -48 72 -86 108 -59 56 -128 79 -240 82 -83
1 -96 4 -140 32 -26 17 -56 31 -65 31 -41 0 -48 10 -42 58 4 39 1 53 -19 82
-45 66 -144 101 -208 74z"/>
</g>
</svg>
